<svg xmlns="http://www.w3.org/2000/svg" width="185" height="41.33" viewBox="0 0 185 41.33">
  <g id="dao" transform="translate(-291.281 -109.823)">
    <g id="dao-2" data-name="dao" transform="translate(304.263 115.864)">
      <g id="Group_1" data-name="Group 1">
        <path id="Path_1" data-name="Path 1" d="M176.26,316.948c.189.124.108.318.108.478-.039,3.665-.087,7.319-.124,10.978a.637.637,0,0,1-.34.658q-4.519,2.5-9.024,5.031a1.334,1.334,0,0,1-.27.084.927.927,0,0,1-.2-.647c0-3.468-.015-6.937.006-10.4a1.317,1.317,0,0,1,.027-.23c.053-.323.306-.481.557-.628q4.437-2.6,8.883-5.19A.836.836,0,0,1,176.26,316.948Z" transform="translate(-156.596 -304.967)" fill="#1ebbb1"/>
        <path id="Path_2" data-name="Path 2" d="M103.155,273.713a34.884,34.884,0,0,1-3.259,1.974c-2.118,1.269-4.261,2.5-6.393,3.74a.184.184,0,0,1-.157.046c-2.71-1.509-5.382-3.078-8.073-4.618a6.121,6.121,0,0,1-1.6-1.017c-.071-.375.254-.448.469-.572q3.108-1.8,6.214-3.611c.8-.465,1.6-.929,2.4-1.4.216-.125.41-.3.69-.223l9.179,5.338C102.805,273.475,102.979,273.6,103.155,273.713Z" transform="translate(-83.491 -261.312)" fill="#28a495"/>
        <path id="Path_3" data-name="Path 3" d="M92.937,215.283l-9.393,5.458c-.142.083-.342.121-.345.347.079.126.071.216-.1.231,0-2.343,0-4.687-.014-7.03a.6.6,0,0,1,.345-.6q4.521-2.617,9.028-5.257c.369-.216.5-.168.5.284C92.941,210.907,92.943,213.1,92.937,215.283Z" transform="translate(-82.983 -208.31)" fill="#dbe277"/>
        <path id="Path_4" data-name="Path 4" d="M92.776,365.746l.113.032v11.513c-1.2-.576-2.307-1.321-3.449-1.993q-2.974-1.739-5.928-3.51c-.192-.114-.431-.182-.539-.415.141-.346.5-.41.773-.567,2.846-1.632,5.705-3.241,8.565-4.851a1.615,1.615,0,0,1,.466-.21Z" transform="translate(-82.878 -348.083)" fill="#dbe277"/>
        <path id="Path_5" data-name="Path 5" d="M92.114,323.6a9.158,9.158,0,0,1-2,1.227c-2.587,1.49-5.2,2.938-7.807,4.4a3.48,3.48,0,0,1,0-1.431q0-4.762.025-9.522l.1-.231q3.3,1.869,6.594,3.74C90.066,322.372,91.084,322.99,92.114,323.6Z" transform="translate(-82.215 -305.72)" fill="#bfc051"/>
      </g>
      <g id="Group_2" data-name="Group 2" transform="translate(26.378 7.398)">
        <path id="Path_6" data-name="Path 6" d="M12.568-6.787V-5.11a10.071,10.071,0,0,1-.126,1.617A6.124,6.124,0,0,1,12-1.995,4.6,4.6,0,0,1,9.287.439a6.8,6.8,0,0,1-2.2.349H1.66V-14.235H7.082a6.8,6.8,0,0,1,2.2.348A4.506,4.506,0,0,1,11.047-12.8,4.563,4.563,0,0,1,12-11.471a5.812,5.812,0,0,1,.443,1.456,9.547,9.547,0,0,1,.128,1.571Zm-2.933,0q0-.844-.022-1.466a10.125,10.125,0,0,0-.084-1.085,3.341,3.341,0,0,0-.189-.78A2.1,2.1,0,0,0,9-10.687a2.42,2.42,0,0,0-.908-.7,3.189,3.189,0,0,0-1.287-.232H4.593V-1.83H6.808a3.189,3.189,0,0,0,1.287-.23,2.42,2.42,0,0,0,.9-.7,2.823,2.823,0,0,0,.52-1.413,22.137,22.137,0,0,0,.115-2.617ZM23.9.787,23.011-1.87H17.674L16.766.788H13.707l5.465-15.023h2.3L26.956.787ZM20.4-9.8,18.5-4.339h3.735Zm18.8,3.081q0,.97-.021,1.814a10.043,10.043,0,0,1-.158,1.582,5.574,5.574,0,0,1-.447,1.382A4.382,4.382,0,0,1,37.69-.732,5.365,5.365,0,0,1,33.648.913,5.775,5.775,0,0,1,31.365.492,5.653,5.653,0,0,1,29.572-.732,4.381,4.381,0,0,1,28.7-1.944a5.282,5.282,0,0,1-.431-1.382,11,11,0,0,1-.148-1.582Q28.1-5.752,28.1-6.722t.021-1.814a11,11,0,0,1,.148-1.582A5.282,5.282,0,0,1,28.7-11.5a4.381,4.381,0,0,1,.875-1.214,5.653,5.653,0,0,1,1.794-1.223,5.775,5.775,0,0,1,2.279-.422,5.7,5.7,0,0,1,2.263.422,5.69,5.69,0,0,1,1.782,1.223,4.381,4.381,0,0,1,.875,1.214,5.573,5.573,0,0,1,.443,1.382,10.045,10.045,0,0,1,.158,1.582q.026.842.026,1.813Zm-2.933,0q0-1.078-.031-1.783a8.977,8.977,0,0,0-.116-1.171,2.7,2.7,0,0,0-.232-.749,2.422,2.422,0,0,0-.359-.517,2.382,2.382,0,0,0-.791-.58,2.542,2.542,0,0,0-1.086-.222,2.613,2.613,0,0,0-1.1.222,2.356,2.356,0,0,0-.8.58,2.155,2.155,0,0,0-.348.517,2.988,2.988,0,0,0-.222.749A8.979,8.979,0,0,0,31.061-8.5q-.031.707-.031,1.783t.032,1.783a8.977,8.977,0,0,0,.116,1.171,2.989,2.989,0,0,0,.222.749,2.156,2.156,0,0,0,.348.517,2.356,2.356,0,0,0,.8.58,2.613,2.613,0,0,0,1.1.222,2.542,2.542,0,0,0,1.086-.222,2.382,2.382,0,0,0,.791-.58,2.422,2.422,0,0,0,.359-.517,2.7,2.7,0,0,0,.232-.749A8.978,8.978,0,0,0,36.23-4.94q.031-.708.031-1.783Z" transform="translate(-1.66 14.659)" fill="#272525"/>
        <path id="Path_7" data-name="Path 7" d="M11.758-3.2a4.378,4.378,0,0,1-.311,1.7,3.4,3.4,0,0,1-.872,1.243A3.665,3.665,0,0,1,9.232.5,5.624,5.624,0,0,1,7.508.75H1.957V-13.522H7.329a5.332,5.332,0,0,1,1.714.261,3.778,3.778,0,0,1,1.323.754,3.442,3.442,0,0,1,.862,1.192,3.923,3.923,0,0,1,.311,1.6,3.234,3.234,0,0,1-.6,1.964,3.269,3.269,0,0,1-1.5,1.161,3.654,3.654,0,0,1,1.674,1.243A3.455,3.455,0,0,1,11.758-3.2ZM10.014-9.694a2.535,2.535,0,0,0-.22-1.1,2.168,2.168,0,0,0-.592-.762,2.5,2.5,0,0,0-.882-.451,3.929,3.929,0,0,0-1.112-.15H3.48v4.951H7.208a3.929,3.929,0,0,0,1.112-.15,2.5,2.5,0,0,0,.88-.451,2.146,2.146,0,0,0,.592-.772,2.6,2.6,0,0,0,.22-1.116ZM10.23-3.24a2.446,2.446,0,0,0-.771-1.9,3,3,0,0,0-2.094-.7H3.48V-.615H7.369a2.969,2.969,0,0,0,2.094-.711,2.479,2.479,0,0,0,.772-1.913ZM24.164.748H15.346v-14.27h1.523V-.614h7.3ZM36.27-6.387q0,1.143-.02,1.994A9.181,9.181,0,0,1,36.1-2.87a4.7,4.7,0,0,1-.4,1.213,4.041,4.041,0,0,1-.772,1.042,5.011,5.011,0,0,1-1.643,1.1,5.2,5.2,0,0,1-2,.381,4.958,4.958,0,0,1-3.653-1.48,4.041,4.041,0,0,1-.772-1.042,4.7,4.7,0,0,1-.4-1.213,9.183,9.183,0,0,1-.15-1.523q-.02-.852-.02-1.994t.02-1.994A9.182,9.182,0,0,1,26.46-9.9a4.7,4.7,0,0,1,.4-1.213,4.041,4.041,0,0,1,.772-1.042,5.227,5.227,0,0,1,7.3,0,4.041,4.041,0,0,1,.772,1.042A4.7,4.7,0,0,1,36.1-9.9a9.181,9.181,0,0,1,.15,1.523q.022.852.021,1.993Zm-1.523,0q0-1.122-.03-1.893a9.347,9.347,0,0,0-.13-1.313,3.394,3.394,0,0,0-.3-.933,2.92,2.92,0,0,0-.539-.732,3.241,3.241,0,0,0-1.112-.754,3.517,3.517,0,0,0-2.705,0,3.241,3.241,0,0,0-1.112.754,2.92,2.92,0,0,0-.539.732,3.4,3.4,0,0,0-.3.932,9.345,9.345,0,0,0-.13,1.313q-.03.772-.03,1.893t.03,1.893a9.345,9.345,0,0,0,.13,1.313,3.4,3.4,0,0,0,.3.932,2.92,2.92,0,0,0,.539.732,3.241,3.241,0,0,0,1.112.754,3.517,3.517,0,0,0,2.7,0,3.241,3.241,0,0,0,1.112-.754,2.92,2.92,0,0,0,.539-.732,3.394,3.394,0,0,0,.3-.932,9.347,9.347,0,0,0,.13-1.313q.031-.771.031-1.893ZM49.259-3.38a5.92,5.92,0,0,1-.611,1.794A4.519,4.519,0,0,1,47.57-.253a4.777,4.777,0,0,1-1.482.831A5.314,5.314,0,0,1,44.3.869a5.221,5.221,0,0,1-1.989-.38,4.984,4.984,0,0,1-1.653-1.1,4.041,4.041,0,0,1-.772-1.042,4.7,4.7,0,0,1-.4-1.213,9.183,9.183,0,0,1-.149-1.523q-.02-.852-.02-1.994t.02-1.994A9.183,9.183,0,0,1,39.489-9.9a4.7,4.7,0,0,1,.4-1.213,4.041,4.041,0,0,1,.772-1.042,4.984,4.984,0,0,1,1.654-1.1,5.221,5.221,0,0,1,1.994-.381,5.314,5.314,0,0,1,1.784.291,4.777,4.777,0,0,1,1.474.832,4.519,4.519,0,0,1,1.078,1.333,5.92,5.92,0,0,1,.614,1.792H47.7a3.762,3.762,0,0,0-1.163-2.1,3.234,3.234,0,0,0-2.225-.781,3.61,3.61,0,0,0-1.352.261,3.126,3.126,0,0,0-1.112.742,2.919,2.919,0,0,0-.539.732A3.4,3.4,0,0,0,41-9.6a9.614,9.614,0,0,0-.13,1.323q-.03.772-.03,1.893t.03,1.893A9.614,9.614,0,0,0,41-3.171a3.4,3.4,0,0,0,.3.942,2.919,2.919,0,0,0,.539.732,3.126,3.126,0,0,0,1.112.742A3.61,3.61,0,0,0,44.3-.494a3.306,3.306,0,0,0,2.245-.781,3.708,3.708,0,0,0,1.186-2.1Z" transform="translate(42.927 13.643)" fill="#272525"/>
      </g>
    </g>
    <rect id="Rectangle_1" data-name="Rectangle 1" width="185" height="41.33" transform="translate(291.281 109.823)" fill="none"/>
  </g>
</svg>
